<svg width="35" height="31" viewBox="0 0 35 31" fill="none" xmlns="http://www.w3.org/2000/svg">
<g id="fontisto:persons" clip-path="url(#clip0_162_1611)">
<path id="Vector" d="M30.0367 22.4C28.6769 20.7047 26.7353 19.4904 24.5323 18.9575L24.4637 18.9437L22.8765 21.4312C22.8755 21.7625 22.7333 22.0798 22.4811 22.314C22.2289 22.5482 21.8871 22.6803 21.5304 22.6812C20.79 22.6812 20.1842 22.1187 19.4775 20.4637V20.4237C19.4775 20.0093 19.3002 19.6119 18.9847 19.3189C18.6691 19.0259 18.2411 18.8612 17.7948 18.8612C17.3485 18.8612 16.9205 19.0259 16.605 19.3189C16.2894 19.6119 16.1121 20.0093 16.1121 20.4237V20.465V20.4625C15.3583 22.1187 14.7471 22.68 14.0081 22.68C13.6514 22.679 13.3096 22.547 13.0574 22.3128C12.8052 22.0786 12.663 21.7612 12.6619 21.43L11.1246 18.9375C8.90648 19.4614 6.94717 20.6722 5.57038 22.37L5.55154 22.3938C5.00581 23.2225 4.70193 24.169 4.66981 25.14V25.1487C4.67654 25.3362 4.66981 25.555 4.66981 25.7737V28.2737C4.66981 28.9368 4.95346 29.5727 5.45837 30.0415C5.96327 30.5104 6.64807 30.7737 7.36212 30.7737H28.2275C28.9415 30.7737 29.6263 30.5104 30.1313 30.0415C30.6362 29.5727 30.9198 28.9368 30.9198 28.2737V25.7737C30.9198 25.5562 30.9131 25.3362 30.9198 25.1487C30.8859 24.1667 30.5769 23.2098 30.0233 22.3725L30.0381 22.3975L30.0367 22.4ZM10.7262 7.39375C10.7262 11.0437 13.1762 16.4062 17.7935 16.4062C22.33 16.4062 24.8608 11.0437 24.8608 7.39375V7.3125C24.8608 6.4507 24.678 5.59734 24.3228 4.80114C23.9676 4.00494 23.4471 3.2815 22.7908 2.67211C22.1345 2.06273 21.3554 1.57934 20.498 1.24954C19.6406 0.919744 18.7216 0.75 17.7935 0.75C16.8654 0.75 15.9464 0.919744 15.0889 1.24954C14.2315 1.57934 13.4524 2.06273 12.7961 2.67211C12.1399 3.2815 11.6193 4.00494 11.2641 4.80114C10.909 5.59734 10.7262 6.4507 10.7262 7.3125V7.3975V7.39375ZM25.8488 9.54375C25.8488 11.9213 27.4454 15.4163 30.4527 15.4163C33.4075 15.4163 35.0565 11.9225 35.0565 9.54375V9.47875C35.0565 8.34462 34.5714 7.25694 33.7077 6.45498C32.8441 5.65303 31.6727 5.2025 30.4513 5.2025C29.23 5.2025 28.0586 5.65303 27.195 6.45498C26.3313 7.25694 25.8462 8.34462 25.8462 9.47875V9.5475V9.54375H25.8488ZM0.00269231 11.5437C0.00269231 13.9212 1.59923 17.4162 4.60654 17.4162C7.56135 17.4162 9.21039 13.9225 9.21039 11.5437V11.4787C9.21039 10.3446 8.7252 9.25694 7.86156 8.45498C6.99791 7.65303 5.82657 7.2025 4.60519 7.2025C3.38382 7.2025 2.21247 7.65303 1.34883 8.45498C0.485189 9.25694 0 10.3446 0 11.4787L0 11.5475V11.5437H0.00269231Z" fill="#BBFFEF"/>
</g>
<defs>
<clipPath id="clip0_162_1611">
<rect width="35" height="30" fill="white" transform="translate(0 0.78125)"/>
</clipPath>
</defs>
</svg>
