<svg width="44" height="40" viewBox="0 0 44 40" fill="none" xmlns="http://www.w3.org/2000/svg">
<g id="ph:chart-line">
<path id="Vector" d="M39.875 32.5C39.875 32.8315 39.7301 33.1495 39.4723 33.3839C39.2144 33.6183 38.8647 33.75 38.5 33.75H5.5C5.13533 33.75 4.78559 33.6183 4.52773 33.3839C4.26987 33.1495 4.125 32.8315 4.125 32.5V7.5C4.125 7.16848 4.26987 6.85054 4.52773 6.61612C4.78559 6.3817 5.13533 6.25 5.5 6.25C5.86467 6.25 6.21441 6.3817 6.47227 6.61612C6.73013 6.85054 6.875 7.16848 6.875 7.5V22.2453L15.5942 15.3125C15.8315 15.1237 16.1329 15.0147 16.448 15.0039C16.7631 14.9931 17.0728 15.0811 17.325 15.2531L27.433 22.1453L37.5942 14.0625C37.7274 13.9426 37.8862 13.8487 38.0608 13.7867C38.2354 13.7246 38.4221 13.6957 38.6095 13.7016C38.7968 13.7076 38.9809 13.7483 39.1503 13.8212C39.3197 13.8942 39.4709 13.9979 39.5946 14.126C39.7183 14.254 39.8119 14.4037 39.8697 14.5658C39.9274 14.728 39.9481 14.8991 39.9304 15.0688C39.9127 15.2385 39.8571 15.403 39.7668 15.5524C39.6766 15.7018 39.5537 15.8329 39.4058 15.9375L28.4058 24.6875C28.1685 24.8763 27.8671 24.9853 27.552 24.9961C27.2369 25.0069 26.9272 24.9189 26.675 24.7469L16.567 17.8578L6.875 25.5672V31.25H38.5C38.8647 31.25 39.2144 31.3817 39.4723 31.6161C39.7301 31.8505 39.875 32.1685 39.875 32.5Z" fill="#57F884"/>
</g>
</svg>
