<svg width="35" height="36" viewBox="0 0 35 36" fill="none" xmlns="http://www.w3.org/2000/svg">
<g id="solar:card-search-bold-duotone">
<g id="Group 5">
<g id="Group">
<path id="Vector" opacity="0.5" d="M14.5837 29.9478H19.873C19.2523 29.1476 18.7966 28.2321 18.5322 27.2545C18.2678 26.2769 18.1999 25.2565 18.3326 24.2525C18.4653 23.2484 18.7959 22.2807 19.3052 21.4053C19.8145 20.53 20.4924 19.7643 21.2997 19.1528C22.1069 18.5412 23.0275 18.0959 24.0081 17.8426C24.9887 17.5893 26.0097 17.5331 27.0122 17.6772C28.0146 17.8213 28.9785 18.1628 29.8481 18.682C30.7176 19.2013 31.4755 19.8878 32.0778 20.702C32.0837 19.9626 32.0837 19.1562 32.0837 18.2812C32.0837 17.6366 32.0837 15.9362 32.0807 15.3645H2.91991C2.91699 15.9362 2.91699 17.6366 2.91699 18.2812C2.91699 23.7805 2.91699 26.531 4.62616 28.2387C6.33387 29.9478 9.08428 29.9478 14.5837 29.9478Z" fill="#BBFFEF"/>
<path id="Vector_2" d="M7.65625 24.1145C7.65625 23.8244 7.77148 23.5462 7.9766 23.3411C8.18172 23.136 8.45992 23.0208 8.75 23.0208H14.5833C14.8734 23.0208 15.1516 23.136 15.3567 23.3411C15.5618 23.5462 15.6771 23.8244 15.6771 24.1145C15.6771 24.4046 15.5618 24.6828 15.3567 24.8879C15.1516 25.093 14.8734 25.2083 14.5833 25.2083H8.75C8.45992 25.2083 8.18172 25.093 7.9766 24.8879C7.77148 24.6828 7.65625 24.4046 7.65625 24.1145Z" fill="#BBFFEF"/>
<path id="Vector_3" fill-rule="evenodd" clip-rule="evenodd" d="M25.8857 21.927C25.0155 21.927 24.1809 22.2727 23.5655 22.8881C22.9502 23.5034 22.6045 24.338 22.6045 25.2083C22.6045 26.0785 22.9502 26.9131 23.5655 27.5285C24.1809 28.1438 25.0155 28.4895 25.8857 28.4895C26.756 28.4895 27.5906 28.1438 28.2059 27.5285C28.8213 26.9131 29.167 26.0785 29.167 25.2083C29.167 24.338 28.8213 23.5034 28.2059 22.8881C27.5906 22.2727 26.756 21.927 25.8857 21.927ZM20.417 25.2083C20.4173 24.3556 20.6169 23.5148 21 22.7531C21.383 21.9913 21.9389 21.3297 22.6232 20.821C23.3075 20.3123 24.1013 19.9707 24.9411 19.8234C25.781 19.6761 26.6436 19.7273 27.4602 19.9728C28.2767 20.2182 29.0246 20.6512 29.644 21.2372C30.2634 21.8232 30.7372 22.5459 31.0276 23.3476C31.318 24.1492 31.4169 25.0077 31.3164 25.8544C31.2159 26.7012 30.9188 27.5127 30.4489 28.2241L31.7628 29.5395C31.8703 29.6397 31.9565 29.7604 32.0163 29.8946C32.076 30.0287 32.1082 30.1736 32.1108 30.3204C32.1134 30.4673 32.0863 30.6132 32.0313 30.7494C31.9763 30.8856 31.8944 31.0093 31.7906 31.1131C31.6867 31.217 31.563 31.2989 31.4268 31.3539C31.2906 31.4089 31.1448 31.4359 30.9979 31.4333C30.851 31.4307 30.7062 31.3986 30.572 31.3388C30.4379 31.279 30.3171 31.1928 30.217 31.0854L28.9016 29.7714C28.0773 30.3163 27.1207 30.6277 26.1336 30.6725C25.1465 30.7173 24.1657 30.4938 23.2954 30.0258C22.4252 29.5577 21.698 28.8626 21.1912 28.0144C20.6843 27.1661 20.4168 26.1964 20.417 25.2083Z" fill="#BBFFEF"/>
<path id="Vector_4" d="M14.5764 6.6145H20.4243C25.9382 6.6145 28.6959 6.6145 30.408 8.242C31.6418 9.41304 31.9874 11.1003 32.0837 13.9062V15.3645H2.91699V13.9062C3.01324 11.0989 3.35887 9.4145 4.59262 8.242C6.3047 6.6145 9.06241 6.6145 14.5764 6.6145Z" fill="#BBFFEF"/>
</g>
</g>
</g>
</svg>
