<svg width="30" height="30" viewBox="0 0 30 30" fill="none" xmlns="http://www.w3.org/2000/svg">
<path id="Vector" fill-rule="evenodd" clip-rule="evenodd" d="M9.04505 1.6C9.51054 0.656 10.5147 0 11.6751 0H18.3249C19.4853 0 20.4878 0.656 20.955 1.6C22.0904 1.6096 22.9765 1.6592 23.7678 1.9568C24.7125 2.31243 25.5341 2.91682 26.1385 3.7008C26.7487 4.4912 27.0363 5.504 27.4286 6.8976L28.6622 11.2528L29.1276 12.5984L29.1675 12.6464C30.6654 14.4928 29.9522 17.2384 28.5258 22.728C27.6181 26.2208 27.1659 27.9664 25.8127 28.984C24.4594 30 22.5892 30 18.8486 30H11.1514C7.41084 30 5.54057 30 4.18732 28.984C2.83407 27.9664 2.38022 26.2208 1.47417 22.728C0.0477757 17.2384 -0.665423 14.4928 0.83246 12.6464L0.872359 12.5984L1.33785 11.2528L2.5714 6.8976C2.9654 5.504 3.25301 4.4896 3.86147 3.6992C4.46616 2.91581 5.2877 2.312 6.23215 1.9568C7.02349 1.6592 7.90792 1.608 9.04505 1.6ZM9.04837 4.0032C7.94782 4.0144 7.5056 4.0544 7.13986 4.192C6.63109 4.38349 6.18861 4.70897 5.86308 5.1312C5.57049 5.5104 5.39759 6.04 4.91548 7.7472L3.96787 11.0896C5.66359 10.8 7.98107 10.8 11.1497 10.8H18.8486C22.0189 10.8 24.3348 10.8 26.0305 11.088L25.0845 7.7456C24.6024 6.0384 24.4295 5.5088 24.1369 5.1296C23.8114 4.70737 23.3689 4.38189 22.8601 4.1904C22.4944 4.0528 22.0522 4.0128 20.9516 4.0016C20.7156 4.47976 20.3435 4.88371 19.8786 5.16662C19.4137 5.44953 18.875 5.5998 18.3249 5.6H11.6751C11.1252 5.59994 10.5866 5.44991 10.1217 5.1673C9.65681 4.88468 9.28466 4.48106 9.04837 4.0032Z" fill="#BBFFEF"/>
</svg>
