<svg width="55" height="56" viewBox="0 0 55 56" fill="none" xmlns="http://www.w3.org/2000/svg">
<g id="&#217;&#133;&#216;&#185;&#216;&#177;&#217;&#129;&#219;&#140; &#217;&#135;&#217;&#136;&#216;&#180; &#217;&#133;&#216;&#181;&#217;&#134;&#217;&#136;&#216;&#185;&#219;&#140;">
<g clip-path="url(#clip0_162_1626)">
<rect width="55" height="55" rx="27.5" transform="matrix(1 0 0 -1 0 55.7812)" fill="#95959C" fill-opacity="0.44"/>
<path id="Vector" d="M40.6923 13H15.3077C14.6957 13 14.1087 13.2431 13.6759 13.6759C13.2431 14.1087 13 14.6957 13 15.3077V40.6923C13 41.3043 13.2431 41.8913 13.6759 42.3241C14.1087 42.7569 14.6957 43 15.3077 43H40.6923C41.3043 43 41.8913 42.7569 42.3241 42.3241C42.7569 41.8913 43 41.3043 43 40.6923V15.3077C43 14.6957 42.7569 14.1087 42.3241 13.6759C41.8913 13.2431 41.3043 13 40.6923 13ZM19.9231 33.7692H15.3077V29.1538H19.9231V33.7692ZM22.2308 36.0769H26.8462V40.6923H22.2308V36.0769ZM29.1538 36.0769H33.7692V40.6923H29.1538V36.0769ZM29.1538 26.8462V22.2308H33.7692V26.8462H29.1538ZM33.7692 19.9231H29.1538V15.3077H33.7692V19.9231ZM36.0769 22.2308H40.6923V26.8462H36.0769V22.2308ZM26.8462 15.3077V26.8462H15.3077V15.3077H26.8462ZM36.0769 40.6923V29.1538H40.6923V40.6923H36.0769Z" fill="#BBFFEF"/>
</g>
</g>
<defs>
<clipPath id="clip0_162_1626">
<rect width="55" height="55" rx="27.5" transform="matrix(1 0 0 -1 0 55.7812)" fill="white"/>
</clipPath>
</defs>
</svg>
